<svg width="53" height="75" viewBox="0 0 53 75" fill="none" xmlns="http://www.w3.org/2000/svg">
<path d="M26.5 35.625C23.9899 35.625 21.5826 34.6373 19.8077 32.8791C18.0328 31.121 17.0357 28.7364 17.0357 26.25C17.0357 23.7636 18.0328 21.379 19.8077 19.6209C21.5826 17.8627 23.9899 16.875 26.5 16.875C29.0101 16.875 31.4174 17.8627 33.1923 19.6209C34.9672 21.379 35.9643 23.7636 35.9643 26.25C35.9643 27.4811 35.7195 28.7002 35.2439 29.8377C34.7682 30.9751 34.0711 32.0086 33.1923 32.8791C32.3134 33.7497 31.2701 34.4402 30.1218 34.9114C28.9736 35.3825 27.7429 35.625 26.5 35.625ZM26.5 0C19.4718 0 12.7314 2.76562 7.76167 7.68845C2.79196 12.6113 0 19.2881 0 26.25C0 45.9375 26.5 75 26.5 75C26.5 75 53 45.9375 53 26.25C53 19.2881 50.208 12.6113 45.2383 7.68845C40.2686 2.76562 33.5282 0 26.5 0Z" fill="#BD1922"/>
</svg>
