<svg width="212" height="87" viewBox="0 0 212 87" fill="none" xmlns="http://www.w3.org/2000/svg">
<path fill-rule="evenodd" clip-rule="evenodd" d="M202.924 35.2062C186.266 22.69 162.624 19.0117 143.005 16.8422C118.646 14.1486 94.7687 15.3173 70.7282 20.4257C59.1517 22.8855 41.1952 28.3547 29.8413 32.5093C23.0547 34.9927 19.431 36.3747 17.4485 37.2027C15.5289 38.0045 14.9706 38.3477 14.576 38.8299C14.5421 38.8713 14.5164 38.9039 14.495 38.9311C14.4279 39.0164 14.4023 39.0489 14.2947 39.1346C14.1231 39.2711 13.7762 39.501 13.022 39.893C11.5186 40.6747 8.57005 42.0138 2.60459 44.4702C2.09391 44.6805 1.85039 45.2649 2.06068 45.7756C2.27096 46.2863 2.85543 46.5298 3.36611 46.3195C9.33184 43.863 12.3542 42.4944 13.9446 41.6675C14.7374 41.2554 15.2181 40.9558 15.5401 40.6995C15.8418 40.4594 16.0028 40.2517 16.0875 40.1426C16.1016 40.1245 16.1135 40.1091 16.1237 40.0967L16.1276 40.0914C16.1612 40.0459 16.3078 39.8467 18.2194 39.0482C20.1542 38.24 23.7369 36.8727 30.5286 34.3875C41.8203 30.2557 59.6836 24.8172 71.1439 22.382C94.975 17.3181 118.638 16.1599 142.785 18.8301C162.447 21.0043 185.557 24.6588 201.723 36.8051C203.226 37.9345 205.368 39.7418 206.505 41.6791C207.068 42.6371 207.327 43.5314 207.237 44.3363C207.151 45.1063 206.726 45.9594 205.574 46.8285C204.929 47.3151 203.81 47.908 202.388 48.5473C200.986 49.1777 199.355 49.8243 197.734 50.4277C194.641 51.5788 191.62 52.5588 190.363 52.9523C190.783 52.7014 191.198 52.4345 191.599 52.1509C193.521 50.7908 195.3 48.9157 195.613 46.3938C195.917 43.9381 194.504 41.9276 192.9 40.4491C191.278 38.9537 189.255 37.8084 187.884 37.0674C165.52 24.9759 137.124 20.2586 112.15 21.3463C100.488 21.8543 89.2361 23.6179 78.2551 26.4614C69.0498 28.3589 60.007 31.2882 51.7815 35.3772C50.6631 35.8644 49.5503 36.3622 48.4432 36.869L48.2104 36.9755L48.2104 36.9756C40.0495 40.7105 30.7672 44.9587 24.5887 52.2444C23.7903 53.1859 23.0323 54.1239 22.4514 55.0322C21.877 55.9304 21.4179 56.8866 21.3131 57.8621C21.2019 58.8962 21.4977 59.88 22.2852 60.7336C23.0338 61.545 24.1864 62.1973 25.727 62.7434C32.645 65.1955 40.2898 66.2148 47.4992 67.1761L47.4993 67.1761C48.5531 67.3166 49.5975 67.4559 50.629 67.5982C66.7619 69.824 82.8785 69.5235 99.0416 68.7549C106.492 68.4006 113.955 67.9811 121.409 67.3707C134.643 66.8883 147.718 65.3621 160.761 62.6781C168.993 60.9841 182.549 57.4688 190.786 54.9153C191.945 54.5557 195.145 53.5253 198.431 52.3021C200.074 51.6906 201.75 51.0269 203.208 50.3715C204.646 49.7249 205.942 49.0563 206.779 48.4251C208.271 47.2994 209.065 45.9867 209.225 44.559C209.381 43.1662 208.914 41.8309 208.23 40.6665C206.876 38.3591 204.447 36.3505 202.924 35.2062ZM121.29 65.3737C128.98 64.7431 136.647 63.909 144.272 62.7324C145.082 62.6073 145.896 62.4826 146.711 62.3576C159.61 60.3799 173.048 58.3194 185 53.3328C186.62 52.6567 188.705 51.7488 190.443 50.5184C192.199 49.2759 193.418 47.834 193.628 46.1475C193.812 44.6605 192.986 43.248 191.545 41.9197C190.122 40.6085 188.295 39.5632 186.933 38.8267C164.96 26.9471 136.945 22.2683 112.237 23.3444C109.515 23.463 106.816 23.6507 104.138 23.9055C113.503 23.4674 122.899 23.7496 132.148 24.8973C132.696 24.9653 133.085 25.4647 133.017 26.0128C132.949 26.5609 132.449 26.9501 131.901 26.8821C114.586 24.7334 96.7094 25.6554 79.4794 28.6898C76.6491 29.1883 73.8454 29.8253 71.0682 30.5778C64.3682 32.642 57.7547 35.1072 51.1933 37.9325C49.1482 39.0352 47.0731 40.3597 45.3309 41.9524C43.1817 43.9173 41.5937 46.2397 41.1361 49.0089C40.6524 51.9366 42.7583 54.3587 46.0971 56.3426C49.3643 58.2838 53.3881 59.535 55.7571 60.194C75.032 65.5554 96.6031 65.8519 116.605 65.4997C118.17 65.4722 119.731 65.4302 121.29 65.3737ZM42.6742 41.7848C40.9399 43.6957 39.6101 45.9761 39.1629 48.6829C38.458 52.9492 41.6388 56.0199 45.0755 58.0619C48.5838 60.1465 52.8241 61.4541 55.2212 62.1208C65.9184 65.0964 77.287 66.5311 88.6622 67.1631C76.0121 67.5359 63.4503 67.3482 50.9024 65.617C49.8565 65.4727 48.8039 65.3321 47.7472 65.191L47.7468 65.1909L47.7467 65.1909C40.5173 64.2255 33.1005 63.235 26.3952 60.8583C24.9929 60.3613 24.1881 59.8467 23.7552 59.3775C23.3613 58.9505 23.2517 58.54 23.3016 58.0759C23.3578 57.5532 23.6262 56.9074 24.1363 56.1097C24.64 55.3221 25.3235 54.4702 26.1141 53.5379C30.4652 48.407 36.4812 44.8335 42.6742 41.7848Z" fill="#77AA6F"/>
</svg>
