<svg width="380" height="37" viewBox="0 0 380 37" fill="none" xmlns="http://www.w3.org/2000/svg">
    <path d="M0 36L12.012 24.208L0.352 13.296H11.264L18.084 19.94L24.904 13.296H35.816L23.848 24.208L36.168 36H24.992L18.084 28.96L11.176 36H0ZM52.7866 36.704C41.7866 36.704 34.5706 31.952 34.5706 24.648C34.5706 17.344 41.7866 12.548 52.7866 12.548C63.8306 12.548 71.0466 17.344 71.0466 24.648C71.0466 31.952 63.8306 36.704 52.7866 36.704ZM52.7866 30.632C57.5386 30.632 60.6186 28.256 60.6186 24.648C60.6186 21.04 57.5386 18.664 52.7866 18.664C48.0346 18.664 44.9546 21.04 44.9546 24.648C44.9546 28.256 48.0346 30.632 52.7866 30.632ZM95.9956 12.548C103.212 12.548 107.788 16.596 107.744 23.152L107.7 36H97.3596V24.252C97.3596 20.644 95.1156 18.488 91.2436 18.488C86.8436 18.488 84.1596 21.04 84.1596 25.352V36H73.7756V13.296H82.7516L83.8516 18.796H83.8956C86.0076 15.012 90.3196 12.548 95.9956 12.548ZM121.418 36.704C114.202 36.704 109.978 34.416 109.978 30.456C109.978 25.924 115.478 22.844 124.894 21.964L133.562 21.172C134.53 21.084 135.102 20.732 135.102 20.292C135.102 19.192 132.594 18.356 128.766 18.356C123.266 18.356 117.106 20.116 112.794 22.888L110.066 17.476C114.466 14.484 121.594 12.548 128.766 12.548C138.754 12.548 145.354 15.716 145.354 21.304V36H136.334L134.926 31.072H134.882C132.638 34.548 127.666 36.704 121.418 36.704ZM125.114 30.544C131.01 30.544 134.926 28.652 134.926 25.88V25.792L125.598 26.628C122.21 26.892 120.406 27.552 120.406 28.74C120.406 29.884 122.034 30.544 125.114 30.544ZM161.126 36.704C153.03 36.704 147.75 31.952 147.75 24.648C147.75 17.344 153.03 12.548 161.126 12.548C166.802 12.548 171.642 15.144 173.402 19.104H173.446V3.176H183.874V36H174.898L173.534 30.148H173.49C171.686 34.152 166.802 36.704 161.126 36.704ZM165.966 29.796C170.718 29.796 173.798 27.772 173.798 24.648C173.798 21.524 170.718 19.456 165.966 19.456C161.214 19.456 158.134 21.524 158.134 24.648C158.134 27.772 161.214 29.796 165.966 29.796ZM230.5 36.704C224.78 36.704 219.896 34.152 218.136 30.148H218.092L216.728 36H207.752V3.176H218.18V19.104H218.224C219.984 15.144 224.824 12.548 230.5 12.548C238.596 12.548 243.876 17.344 243.876 24.648C243.876 31.952 238.596 36.704 230.5 36.704ZM225.616 29.796C230.368 29.796 233.448 27.772 233.448 24.648C233.448 21.524 230.368 19.456 225.616 19.456C220.908 19.456 217.784 21.524 217.784 24.648C217.784 27.772 220.908 29.796 225.616 29.796ZM256.554 36.704C249.338 36.704 245.114 34.416 245.114 30.456C245.114 25.924 250.614 22.844 260.03 21.964L268.698 21.172C269.666 21.084 270.238 20.732 270.238 20.292C270.238 19.192 267.73 18.356 263.902 18.356C258.402 18.356 252.242 20.116 247.93 22.888L245.202 17.476C249.602 14.484 256.73 12.548 263.902 12.548C273.89 12.548 280.49 15.716 280.49 21.304V36H271.47L270.062 31.072H270.018C267.774 34.548 262.802 36.704 256.554 36.704ZM260.25 30.544C266.146 30.544 270.062 28.652 270.062 25.88V25.792L260.734 26.628C257.346 26.892 255.542 27.552 255.542 28.74C255.542 29.884 257.17 30.544 260.25 30.544ZM283.635 36V3.176H294.063V36H283.635ZM314.452 36.704C307.06 36.704 302.528 33.36 302.528 27.904L302.484 19.632H296.148V13.296H302.484V7.224L312.868 5.376V13.296H326.728V19.632H312.868V25.572C312.868 28.3 314.276 29.708 317.444 29.708C320.524 29.708 322.812 28.608 325.276 26.364L327.476 32.216C323.956 35.384 320.04 36.704 314.452 36.704ZM335.023 10.876C331.679 10.876 329.259 8.764 329.259 5.772C329.259 2.78 331.679 0.711998 335.023 0.711998C338.367 0.711998 340.787 2.78 340.787 5.772C340.787 8.764 338.367 10.876 335.023 10.876ZM329.831 36V13.296H340.215V36H329.831ZM361.696 36.704C350.476 36.704 343.128 31.952 343.172 24.648C343.172 17.344 350.212 12.548 360.772 12.548C369.572 12.548 376.04 16.068 377.228 21.436L367.548 23.02C366.976 20.512 364.644 18.928 361.212 18.928C356.548 18.928 353.556 21.084 353.556 24.648C353.556 28.168 356.68 30.368 361.828 30.368C366.272 30.368 369.484 28.344 370.188 25.044L379.824 26.54C378.548 32.656 371.376 36.704 361.696 36.704Z" fill="#32479D"/>
    </svg>
