<svg width="481" height="62" viewBox="0 0 481 62" fill="none" xmlns="http://www.w3.org/2000/svg">
<path d="M101 45L113.012 33.208L101.352 22.296H112.264L119.084 28.94L125.904 22.296H136.816L124.848 33.208L137.168 45H125.992L119.084 37.96L112.176 45H101ZM153.787 45.704C142.787 45.704 135.571 40.952 135.571 33.648C135.571 26.344 142.787 21.548 153.787 21.548C164.831 21.548 172.047 26.344 172.047 33.648C172.047 40.952 164.831 45.704 153.787 45.704ZM153.787 39.632C158.539 39.632 161.619 37.256 161.619 33.648C161.619 30.04 158.539 27.664 153.787 27.664C149.035 27.664 145.955 30.04 145.955 33.648C145.955 37.256 149.035 39.632 153.787 39.632ZM196.996 21.548C204.212 21.548 208.788 25.596 208.744 32.152L208.7 45H198.36V33.252C198.36 29.644 196.116 27.488 192.244 27.488C187.844 27.488 185.16 30.04 185.16 34.352V45H174.776V22.296H183.752L184.852 27.796H184.896C187.008 24.012 191.32 21.548 196.996 21.548ZM222.418 45.704C215.202 45.704 210.978 43.416 210.978 39.456C210.978 34.924 216.478 31.844 225.894 30.964L234.562 30.172C235.53 30.084 236.102 29.732 236.102 29.292C236.102 28.192 233.594 27.356 229.766 27.356C224.266 27.356 218.106 29.116 213.794 31.888L211.066 26.476C215.466 23.484 222.594 21.548 229.766 21.548C239.754 21.548 246.354 24.716 246.354 30.304V45H237.334L235.926 40.072H235.882C233.638 43.548 228.666 45.704 222.418 45.704ZM226.114 39.544C232.01 39.544 235.926 37.652 235.926 34.88V34.792L226.598 35.628C223.21 35.892 221.406 36.552 221.406 37.74C221.406 38.884 223.034 39.544 226.114 39.544ZM262.126 45.704C254.03 45.704 248.75 40.952 248.75 33.648C248.75 26.344 254.03 21.548 262.126 21.548C267.802 21.548 272.642 24.144 274.402 28.104H274.446V12.176H284.874V45H275.898L274.534 39.148H274.49C272.686 43.152 267.802 45.704 262.126 45.704ZM266.966 38.796C271.718 38.796 274.798 36.772 274.798 33.648C274.798 30.524 271.718 28.456 266.966 28.456C262.214 28.456 259.134 30.524 259.134 33.648C259.134 36.772 262.214 38.796 266.966 38.796ZM331.5 45.704C325.78 45.704 320.896 43.152 319.136 39.148H319.092L317.728 45H308.752V12.176H319.18V28.104H319.224C320.984 24.144 325.824 21.548 331.5 21.548C339.596 21.548 344.876 26.344 344.876 33.648C344.876 40.952 339.596 45.704 331.5 45.704ZM326.616 38.796C331.368 38.796 334.448 36.772 334.448 33.648C334.448 30.524 331.368 28.456 326.616 28.456C321.908 28.456 318.784 30.524 318.784 33.648C318.784 36.772 321.908 38.796 326.616 38.796ZM357.554 45.704C350.338 45.704 346.114 43.416 346.114 39.456C346.114 34.924 351.614 31.844 361.03 30.964L369.698 30.172C370.666 30.084 371.238 29.732 371.238 29.292C371.238 28.192 368.73 27.356 364.902 27.356C359.402 27.356 353.242 29.116 348.93 31.888L346.202 26.476C350.602 23.484 357.73 21.548 364.902 21.548C374.89 21.548 381.49 24.716 381.49 30.304V45H372.47L371.062 40.072H371.018C368.774 43.548 363.802 45.704 357.554 45.704ZM361.25 39.544C367.146 39.544 371.062 37.652 371.062 34.88V34.792L361.734 35.628C358.346 35.892 356.542 36.552 356.542 37.74C356.542 38.884 358.17 39.544 361.25 39.544ZM384.635 45V12.176H395.063V45H384.635ZM415.452 45.704C408.06 45.704 403.528 42.36 403.528 36.904L403.484 28.632H397.148V22.296H403.484V16.224L413.868 14.376V22.296H427.728V28.632H413.868V34.572C413.868 37.3 415.276 38.708 418.444 38.708C421.524 38.708 423.812 37.608 426.276 35.364L428.476 41.216C424.956 44.384 421.04 45.704 415.452 45.704ZM436.023 19.876C432.679 19.876 430.259 17.764 430.259 14.772C430.259 11.78 432.679 9.712 436.023 9.712C439.367 9.712 441.787 11.78 441.787 14.772C441.787 17.764 439.367 19.876 436.023 19.876ZM430.831 45V22.296H441.215V45H430.831ZM462.696 45.704C451.476 45.704 444.128 40.952 444.172 33.648C444.172 26.344 451.212 21.548 461.772 21.548C470.572 21.548 477.04 25.068 478.228 30.436L468.548 32.02C467.976 29.512 465.644 27.928 462.212 27.928C457.548 27.928 454.556 30.084 454.556 33.648C454.556 37.168 457.68 39.368 462.828 39.368C467.272 39.368 470.484 37.344 471.188 34.044L480.824 35.54C479.548 41.656 472.376 45.704 462.696 45.704Z" fill="#32479D"/>
<g clip-path="url(#clip0_0_1)">
<path d="M82 0H59.4196L41.0041 23.6183L22.0823 0H0L3.3646 3.02695L33.0662 29.6237L3.3646 58.6986L0 62H22.0823L41.0041 35.379L59.4196 62H82L48.5254 29.6237L82 0Z" fill="#2A95D3"/>
<path d="M54.6014 6.15884L45.9285 17.298C46.1572 17.3787 58.848 23.6909 53.801 35.4516C52.2902 38.979 49.4401 41.5459 46.0919 42.8374C46.1082 42.8374 46.1164 42.8374 46.1164 42.8374L54.0705 54.2994C59.5503 51.4743 63.9357 46.8975 66.549 40.8437C72.1675 27.8318 66.8185 12.9231 54.6014 6.17499V6.15884Z" fill="#32479D"/>
<path d="M15.5409 19.316C9.8325 32.5296 14.9937 47.6159 27.6192 54.2026L35.606 42.676C28.5665 39.7055 25.2917 31.6579 28.297 24.6918C29.816 21.1806 32.6334 18.6218 35.9654 17.3222L27.1373 6.30414C22.0006 9.16158 18.0317 13.5365 15.5409 19.3079V19.316Z" fill="#32479D"/>
</g>
<defs>
<clipPath id="clip0_0_1">
<rect width="82" height="62" fill="white"/>
</clipPath>
</defs>
</svg>
